# 3ds Max Wavefront OBJ Exporter v0.97b - (c)2007 guruware
# 创建的文件:30.11.2014 14:34:13

mtllib eight.mtl

#
# object Hedra002
#

v  -1.4217 41.4533 -3.4772
v  27.8903 0.0000 25.8347
v  27.8903 0.0000 -32.7891
v  -1.4217 -41.4533 -3.4772
v  -30.7336 0.0000 -32.7891
v  -30.7336 0.0000 25.8347
# 6 vertices

vn 0.8165 0.5774 -0.0000
vn 0.0000 -0.5774 -0.8165
vn -0.8165 0.5774 -0.0000
vn 0.0000 -0.5774 0.8165
vn -0.0000 0.5774 -0.8165
vn -0.0000 0.5774 0.8165
vn 0.8165 -0.5774 0.0000
vn -0.8165 -0.5774 0.0000
# 8 vertex normals

vt 0.0000 0.5000 0.0000
vt -0.5000 0.0000 0.5000
vt 0.5000 0.0000 0.5000
vt 0.0000 0.5000 0.5000
vt -0.5000 0.0000 0.0000
vt 0.0000 -0.5000 0.5000
vt 0.5000 0.0000 -0.5000
vt -0.5000 0.0000 -0.5000
vt 0.0000 -0.5000 -0.5000
vt 0.0000 0.5000 -0.5000
vt 0.5000 0.0000 0.0000
vt 0.0000 -0.5000 0.0000
# 12 texture coords

g Hedra002
usemtl wire_225143087
s off
f 1/1/1 2/2/1 3/3/1 
f 3/4/2 4/5/2 5/6/2 
f 5/7/3 6/8/3 1/1/3 
f 6/9/4 4/5/4 2/10/4 
f 3/4/5 5/6/5 1/11/5 
f 6/9/6 2/10/6 1/11/6 
f 2/2/7 4/12/7 3/3/7 
f 6/8/8 5/7/8 4/12/8 
# 0 polygons - 8 triangles

